Coordinates
version=1
nRows=14
nColumns=40
inDegrees=yes

Units are S.I. units (second, meters, Newtons, ...)
Angles are in degrees.

endheader
time	pelvis_tilt	pelvis_list	pelvis_rotation	pelvis_tx	pelvis_ty	pelvis_tz	hip_flexion_r	hip_adduction_r	hip_rotation_r	knee_angle_r	knee_angle_r_beta	ankle_angle_r	subtalar_angle_r	mtp_angle_r	hip_flexion_l	hip_adduction_l	hip_rotation_l	knee_angle_l	knee_angle_l_beta	ankle_angle_l	subtalar_angle_l	mtp_angle_l	lumbar_extension	lumbar_bending	lumbar_rotation	arm_flex_r	arm_add_r	arm_rot_r	elbow_flex_r	pro_sup_r	wrist_flex_r	wrist_dev_r	arm_flex_l	arm_add_l	arm_rot_l	elbow_flex_l	pro_sup_l	wrist_flex_l	wrist_dev_l
     52.32000000	     -7.71127618	     -2.37177847	      1.42218582	      1.08958008	      0.91988375	      0.48427205	     26.72964446	     -1.35208790	    -12.13971479	     21.93544415	     21.93544415	      5.21895153	     -5.84679422	     -0.69642452	      7.23571305	     -7.30559592	     -7.65410645	     31.29969797	     31.29969797	     15.50213795	     -7.20120761	     -7.96620619	    -10.98514098	      3.31110549	     -1.14229033	     -6.64923184	    -13.82262786	     -1.88636835	     28.80996839	     46.16601371	      0.00000000	      0.00000000	     12.33600764	    -16.30353401	     -9.51760404	     80.13400102	     47.88362743	      0.00000000	      0.00000000
     52.33228571	     -7.77291142	     -2.66846499	      1.74458583	      1.08939418	      0.92098281	      0.48657940	     25.83972899	     -0.94108495	    -12.74493075	     21.13559832	     21.13559832	      5.28324209	     -5.42831506	     -1.38837650	      9.08752765	     -7.95325553	     -6.48260001	     34.95204342	     34.95204342	     13.30174647	     -9.62253992	     -9.47272092	    -10.95478903	      3.75435722	     -0.94421082	     -4.78008037	    -14.11653971	     -0.04020395	     29.21170619	     46.03256142	      0.00000000	      0.00000000	     11.82172983	    -15.64215148	     -8.55553154	     77.45477039	     47.78592119	      0.00000000	      0.00000000
     52.34457143	     -7.75581286	     -3.01283577	      2.03195569	      1.08909407	      0.92198681	      0.48897388	     24.93106194	     -0.44478860	    -13.28457645	     20.43417937	     20.43417937	      5.55776293	     -5.00606330	     -1.49379432	     11.08503166	     -8.64876023	     -5.31351831	     38.96474900	     38.96474900	     11.81066970	    -11.28548904	     -9.41565336	    -11.08962118	      4.16713201	     -0.86402213	     -2.58766418	    -14.27194963	      0.04701094	     30.11082397	     46.00774847	      0.00000000	      0.00000000	     10.76371391	    -15.15365840	     -8.01707681	     75.93427895	     47.71789176	      0.00000000	      0.00000000
     52.35685714	     -7.79746951	     -3.27504941	      2.29861654	      1.08863958	      0.92287519	      0.49113107	     24.06886583	     -0.04749407	    -13.85467106	     19.67305576	     19.67305576	      5.79261462	     -4.40964739	     -1.67967324	     13.24689275	     -9.11058281	     -4.07337330	     42.96608829	     42.96608829	     10.21268701	    -13.17487121	     -8.88322925	    -11.10558525	      4.57435511	     -0.90931669	     -0.35711231	    -14.37727499	      0.22450782	     30.98894040	     45.97786292	      0.00000000	      0.00000000	      9.76321351	    -14.66129787	     -7.39901546	     73.72211153	     47.63289286	      0.00000000	      0.00000000
     52.36914286	     -7.83117246	     -3.52816009	      2.55689667	      1.08804590	      0.92369214	      0.49321361	     23.22880445	      0.31722488	    -14.54233208	     18.94278489	     18.94278489	      5.93223383	     -3.62285737	     -1.95672628	     15.47776805	     -9.43307890	     -2.74842670	     46.88324553	     46.88324553	      8.78475634	    -14.90871761	     -7.72261924	    -11.07923688	      4.92258202	     -0.95613959	      1.93030380	    -14.48853843	      0.56154561	     31.82813091	     45.93958298	      0.00000000	      0.00000000	      8.97634275	    -14.18899986	     -6.69343541	     70.73437856	     47.53067705	      0.00000000	      0.00000000
     52.38142857	     -7.69777772	     -3.58357838	      2.75576344	      1.08742790	      0.92470067	      0.49504380	     22.28441802	      0.40624618	    -15.43925032	     18.38885778	     18.38885778	      6.03700077	     -2.37730679	     -2.75255669	     17.56309137	     -9.46260804	     -1.59784340	     50.76876247	     50.76876247	      8.63448642	    -15.78864903	     -3.84170462	    -11.20583240	      5.11647683	     -0.53643043	      4.18863745	    -14.84057132	      1.88759375	     32.41317287	     45.84881580	      0.00000000	      0.00000000	      9.47827650	    -13.46585163	     -5.43755464	     64.81784663	     47.35528493	      0.00000000	      0.00000000
     52.39371429	     -7.69616155	     -3.89118010	      2.88140339	      1.08650953	      0.92530166	      0.49716368	     21.53528065	      0.88215824	    -15.92896006	     17.81142600	     17.81142600	      6.10275548	     -1.75462120	     -3.19386767	     19.98228674	     -9.89051248	     -0.73542417	     54.70744301	     54.70744301	      9.65717491	    -15.50717517	      1.89784900	    -11.24667940	      5.49549660	      0.51084229	      5.90043778	    -15.56476257	      3.71894078	     33.99130320	     45.68854871	      0.00000000	      0.00000000	      9.74462415	    -12.63829529	     -3.72171852	     60.70511203	     47.17903718	      0.00000000	      0.00000000
     52.40600000	     -7.58610967	     -4.13534773	      3.03285549	      1.08561698	      0.92595969	      0.49910661	     20.73545612	      1.23288286	    -16.57862103	     17.40203139	     17.40203139	      6.36061283	     -0.86025581	     -3.28191348	     22.03036080	    -10.20583685	      0.03568693	     57.78173352	     57.78173352	      9.03940992	    -16.11803453	      2.98055294	    -11.44207309	      5.78535792	      0.46141362	      8.54686525	    -15.63358278	      3.98620067	     35.04047224	     45.65353667	      0.00000000	      0.00000000	      8.78186722	    -12.23210417	     -3.19491355	     57.97720598	     47.09552240	      0.00000000	      0.00000000
     52.41828571	     -7.46442671	     -4.35440247	      3.15555782	      1.08468050	      0.92659021	      0.50089759	     19.97427642	      1.53722806	    -17.23887049	     17.09259300	     17.09259300	      6.68133725	      0.09237852	     -3.26736860	     24.04263022	    -10.48163383	      0.66658508	     60.52108122	     60.52108122	      9.03404728	    -16.42976859	      4.84463857	    -11.60846466	      6.08064757	      0.74307431	     11.14487747	    -15.82552748	      4.64693439	     35.74879643	     45.61060922	      0.00000000	      0.00000000	      8.41413051	    -11.56420239	     -2.63365860	     54.04062431	     46.99917912	      0.00000000	      0.00000000
     52.43057143	     -7.41209081	     -4.60051161	      3.24115692	      1.08363302	      0.92706563	      0.50265499	     19.35743657	      1.87861123	    -17.76046103	     16.88817430	     16.88817430	      7.05826069	      0.88133792	     -2.99791956	     26.09885162	    -10.79860705	      1.17675842	     62.85962725	     62.85962725	      9.41805862	    -16.50369518	      6.95262472	    -11.68614607	      6.35388941	      1.37483468	     13.53107264	    -16.20234428	      5.60704669	     36.44912108	     45.55363971	      0.00000000	      0.00000000	      8.23943302	    -10.73410215	     -2.15270704	     49.97861610	     46.90862646	      0.00000000	      0.00000000
     52.44285714	     -7.31548443	     -4.84836324	      3.34680731	      1.08260568	      0.92753700	      0.50428988	     18.68167959	      2.25830998	    -18.12001125	     16.63210798	     16.63210798	      7.33750238	      1.32907840	     -2.97274041	     27.96165117	    -11.14748312	      1.55292952	     64.55647363	     64.55647363	      9.24846181	    -16.74665660	      7.06526331	    -11.86358771	      6.62548627	      1.43202028	     16.14719202	    -16.21256318	      5.59893928	     37.60606474	     45.52917463	      0.00000000	      0.00000000	      6.93392333	    -10.34995055	     -1.83438228	     48.16694730	     46.84679333	      0.00000000	      0.00000000
     52.45514286	     -7.18135976	     -5.02894916	      3.44008259	      1.08162617	      0.92814568	      0.50574378	     17.98642683	      2.54069751	    -18.51459691	     16.43696827	     16.43696827	      7.60287816	      1.92587352	     -2.89947465	     29.63936672	    -11.42555899	      1.77771450	     65.70083866	     65.70083866	      9.31536327	    -16.90718738	      7.27606017	    -12.05700725	      6.84111531	      1.41496963	     18.86310603	    -16.09153879	      5.77291677	     38.69502432	     45.49817015	      0.00000000	      0.00000000	      5.80327402	     -9.99220964	     -1.55145011	     45.59721173	     46.78351660	      0.00000000	      0.00000000
     52.46742857	     -7.05766318	     -5.10938271	      3.50052996	      1.08066994	      0.92878964	      0.50701882	     17.29284448	      2.72129156	    -18.82207128	     16.24049273	     16.24049273	      7.92984398	      2.52062475	     -2.73678427	     31.16542483	    -11.60575115	      1.83997364	     66.28220405	     66.28220405	      9.50032395	    -17.00606985	      7.58624984	    -12.20852957	      6.94466300	      1.46230483	     21.57256544	    -15.96865548	      6.16457824	     39.70102631	     45.45941873	      0.00000000	      0.00000000	      4.89479322	     -9.56699932	     -1.33478403	     42.46412969	     46.72475582	      0.00000000	      0.00000000
     52.47971429	     -6.95360010	     -5.09837389	      3.51041447	      1.07966541	      0.92946133	      0.50809630	     16.68585527	      2.77978745	    -19.04819423	     16.19368846	     16.19368846	      8.45960296	      3.12346909	     -2.12462343	     32.56736109	    -11.68783758	      1.73750333	     66.36019324	     66.36019324	      9.87100930	    -17.07063639	      8.36672262	    -12.29474829	      6.94417157	      2.16139537	     24.01001640	    -16.47221446	      7.68949967	     40.31788430	     45.38237262	      0.00000000	      0.00000000	      5.14923402	     -8.65377948	     -1.53510946	     37.21188466	     46.71036774	      0.00000000	      0.00000000
